# xmcd
#
# Track frame offsets: 
#        150
#        15184
#        27415
#        41990
#        52412
#        67563
#        80146
#        92676
#        107492
#        119372
#        134545
#        150503
#        162514
#
# Disc length: 2303 seconds
#
# Revision: 0
# Processed by: cddbd v1.5.2PL0 Copyright (c) Steve Scherf et al.
# Submitted via: ExactAudioCopy v0.99pb4
#
DISCID=a708fd0d
DTITLE=Aura - Sativa
DYEAR=1976
DGENRE=Rock
TTITLE0=You Got Something
TTITLE1=Clap Your Hands
TTITLE2=First Taste Of Love
TTITLE3=It's A Feeling
TTITLE4=Gonna Make It
TTITLE5=Sativa
TTITLE6=Mess Up Your Mind
TTITLE7=Don't You Worry
TTITLE8=Trying To Hold It Down
TTITLE9=Skyrocket
TTITLE10=Catch A Falling Star
TTITLE11=Evil That Brings You Down
TTITLE12=It's A Feeling (Early Version)
EXTD=
EXTT0=
EXTT1=
EXTT2=
EXTT3=
EXTT4=
EXTT5=
EXTT6=
EXTT7=
EXTT8=
EXTT9=
EXTT10=
EXTT11=
EXTT12=
PLAYORDER=
